<?xml version="1.0" encoding="utf-8"?>
<!-- Generator: Adobe Illustrator 21.0.2, SVG Export Plug-In . SVG Version: 6.00 Build 0)  -->
<svg version="1.1" id="Warstwa_1" xmlns="http://www.w3.org/2000/svg" xmlns:xlink="http://www.w3.org/1999/xlink" x="0px" y="0px"
	 viewBox="0 0 194.7 184.7" style="enable-background:new 0 0 194.7 184.7;" xml:space="preserve">
<style type="text/css">
	.st0{fill:#1D1D1B;}
</style>
<g>
	<g>
		<path class="st0" d="M174.1,149.2c0,8.2-6.6,14.8-14.8,14.8H35.4c-8.2,0-14.8-6.6-14.8-14.8V140c0-5.7-4.6-10.3-10.3-10.3h0
			C4.6,129.7,0,134.3,0,140v9.2c0,19.6,15.9,35.4,35.4,35.4h123.8c19.6,0,35.4-15.9,35.4-35.4V140c0-5.7-4.6-10.3-10.3-10.3h0
			c-5.7,0-10.3,4.6-10.3,10.3V149.2z"/>
	</g>
	<path class="st0" d="M31.2,77.3l58.2,58.2c4.5,4.5,11.7,4.5,16.2,0l57.9-57.9c4.5-4.5,4.5-11.7,0-16.2c-4.5-4.5-11.7-4.5-16.2,0
		l-38.8,38.8V9.5c0-5.3-4.9-9.5-11-9.5c-6.1,0-11,4.3-11,9.5v90.7L47.4,61.1c-2.2-2.2-5.2-3.4-8.1-3.4c-2.9,0-5.9,1.1-8.1,3.4
		C26.7,65.6,26.7,72.8,31.2,77.3z"/>
</g>
</svg>
