<?xml version="1.0" encoding="utf-8"?>
<!-- Generator: Adobe Illustrator 21.0.2, SVG Export Plug-In . SVG Version: 6.00 Build 0)  -->
<svg version="1.1" id="Warstwa_1" xmlns="http://www.w3.org/2000/svg" xmlns:xlink="http://www.w3.org/1999/xlink" x="0px" y="0px"
	 viewBox="0 0 247.3 233.3" style="enable-background:new 0 0 247.3 233.3;" xml:space="preserve">
<style type="text/css">
	.st0{fill:none;}
	.st1{fill:#1D1D1B;}
</style>
<g>
	<path class="st0" d="M46.6,55.6c-2.3-2.3-2.3-6,0-8.3c2.3-2.3,6-2.3,8.3,0L71.6,64c2.5-3.9,3.9-8.4,3.9-13.3
		c0-13.7-11.1-24.8-24.8-24.8S25.9,37,25.9,50.7S37,75.5,50.7,75.5c4.5,0,8.7-1.2,12.4-3.3L46.6,55.6z"/>
	<path class="st0" d="M191.3,47.3c2.3-2.3,6-2.3,8.3,0c2.3,2.3,2.3,6,0,8.3l-16,16c3.8,2.4,8.3,3.8,13.2,3.8
		c13.7,0,24.8-11.1,24.8-24.8s-11.1-24.8-24.8-24.8S172,37,172,50.7c0,4.6,1.3,8.8,3.4,12.5L191.3,47.3z"/>
	<path class="st0" d="M57.2,185.7c-1.2,1.1-2.7,1.7-4.2,1.7s-3-0.6-4.2-1.7c-2.3-2.3-2.3-6,0-8.3l15.5-15.5
		c-3.9-2.6-8.6-4.1-13.6-4.1c-13.7,0-24.8,11.1-24.8,24.8s11.1,24.8,24.8,24.8s24.8-11.1,24.8-24.8c0-4.4-1.1-8.5-3.1-12L57.2,185.7
		z"/>
	<path class="st0" d="M196.8,157.8c-5.4,0-10.4,1.7-14.4,4.7l14.9,14.9c2.3,2.3,2.3,6,0,8.3c-1.2,1.2-2.7,1.7-4.2,1.7
		s-3-0.6-4.2-1.7l-14.3-14.3c-1.7,3.4-2.7,7.1-2.7,11.1c0,13.7,11.1,24.8,24.8,24.8s24.8-11.1,24.8-24.8S210.5,157.8,196.8,157.8z"
		/>
	<path class="st1" d="M196.8,131.9c-9.5,0-18.3,2.6-25.9,7.2V94.3c7.6,4.5,16.4,7.2,25.9,7.2c28,0,50.7-22.7,50.7-50.7
		c0-28-22.7-50.7-50.7-50.7s-50.7,22.7-50.7,50.7c0,6.8,1.4,13.4,3.8,19.3H97.6c2.5-6,3.8-12.5,3.8-19.3c0-28-22.7-50.7-50.7-50.7
		S0,22.7,0,50.7c0,28,22.7,50.7,50.7,50.7c9.5,0,18.3-2.6,25.9-7.2v44.8c-7.6-4.5-16.4-7.2-25.9-7.2c-28,0-50.7,22.7-50.7,50.7
		s22.7,50.7,50.7,50.7s50.7-22.7,50.7-50.7c0-6.4-1.2-12.6-3.4-18.2h51.5c-2.2,5.7-3.4,11.8-3.4,18.2c0,28,22.7,50.7,50.7,50.7
		s50.7-22.7,50.7-50.7S224.8,131.9,196.8,131.9z M196.8,25.9c13.7,0,24.8,11.1,24.8,24.8s-11.1,24.8-24.8,24.8
		c-4.9,0-9.4-1.4-13.2-3.8l16-16c2.3-2.3,2.3-6,0-8.3c-2.3-2.3-6-2.3-8.3,0l-15.9,15.9c-2.1-3.7-3.4-7.9-3.4-12.5
		C172,37,183.2,25.9,196.8,25.9z M25.9,50.7C25.9,37,37,25.9,50.7,25.9S75.5,37,75.5,50.7c0,4.9-1.4,9.5-3.9,13.3L54.9,47.3
		c-2.3-2.3-6-2.3-8.3,0c-2.3,2.3-2.3,6,0,8.3l16.5,16.5c-3.6,2.1-7.9,3.3-12.4,3.3C37,75.5,25.9,64.4,25.9,50.7z M50.7,207.4
		c-13.7,0-24.8-11.1-24.8-24.8s11.1-24.8,24.8-24.8c5,0,9.7,1.5,13.6,4.1l-15.5,15.5c-2.3,2.3-2.3,6,0,8.3c1.2,1.2,2.7,1.7,4.2,1.7
		s3-0.6,4.2-1.7l15.1-15.1c2,3.6,3.1,7.7,3.1,12C75.5,196.3,64.4,207.4,50.7,207.4z M196.8,207.4c-13.7,0-24.8-11.1-24.8-24.8
		c0-4,1-7.8,2.7-11.1l14.3,14.3c1.2,1.1,2.7,1.7,4.2,1.7s3-0.6,4.2-1.7c2.3-2.3,2.3-6,0-8.3l-14.9-14.9c4.1-2.9,9-4.7,14.4-4.7
		c13.7,0,24.8,11.1,24.8,24.8S210.5,207.4,196.8,207.4z"/>
</g>
</svg>
