<?xml version="1.0" encoding="utf-8"?>
<!-- Generator: Adobe Illustrator 21.0.2, SVG Export Plug-In . SVG Version: 6.00 Build 0)  -->
<svg version="1.1" id="Warstwa_1" xmlns="http://www.w3.org/2000/svg" xmlns:xlink="http://www.w3.org/1999/xlink" x="0px" y="0px"
	 viewBox="0 0 213.3 137.4" style="enable-background:new 0 0 213.3 137.4;" xml:space="preserve">
<style type="text/css">
	.st0{fill-rule:evenodd;clip-rule:evenodd;fill:#1D1D1B;}
</style>
<g>
	<g>
		<path class="st0" d="M210.5,75.5l-59.1,59.1c-3.8,3.8-9.9,3.8-13.6,0c-3.8-3.8-3.8-9.8,0-13.6l52.3-52.3l-52.3-52.3
			c-3.8-3.8-3.8-9.8,0-13.6c3.8-3.8,9.9-3.8,13.6,0l59.1,59.1c1.9,1.9,2.8,4.3,2.8,6.8C213.3,71.1,212.4,73.6,210.5,75.5z"/>
	</g>
	<g>
		<path class="st0" d="M2.8,61.9L61.9,2.8c3.8-3.8,9.9-3.8,13.6,0c3.8,3.8,3.8,9.8,0,13.6L23.2,68.7l52.3,52.3
			c3.8,3.8,3.8,9.8,0,13.6c-3.8,3.8-9.9,3.8-13.6,0L2.8,75.5C0.9,73.6,0,71.1,0,68.7S0.9,63.8,2.8,61.9z"/>
	</g>
</g>
</svg>
