<?xml version="1.0" encoding="utf-8"?>
<!-- Generator: Adobe Illustrator 21.0.2, SVG Export Plug-In . SVG Version: 6.00 Build 0)  -->
<svg version="1.1" id="Warstwa_1" xmlns="http://www.w3.org/2000/svg" xmlns:xlink="http://www.w3.org/1999/xlink" x="0px" y="0px"
	 viewBox="0 0 145 145.1" style="enable-background:new 0 0 145 145.1;" xml:space="preserve">
<style type="text/css">
	.st0{fill-rule:evenodd;clip-rule:evenodd;fill:#1D1D1B;}
</style>
<path class="st0" d="M142.7,145h-29.1c-1.3,0-2.3-1.1-2.3-2.3V97.1c0-12.8-0.9-22.5-12.8-22.5c-10.9,0-15.1,6.1-15.1,21.7v46.4
	c0,1.3-1,2.3-2.3,2.3H52c-1.3,0-2.3-1.1-2.3-2.3V48.9c0-1.3,1-2.3,2.3-2.3h27.9c1.3,0,2.3,1,2.3,2.3V55c5.2-5.7,13.9-10.8,25.6-10.8
	c32.8,0,37.2,23.8,37.2,47v51.4C145,143.9,144,145,142.7,145z M19.2,38.5C8.6,38.5,0,29.8,0,19.2C0,8.6,8.6,0,19.2,0
	c10.6,0,19.2,8.6,19.2,19.2C38.4,29.8,29.8,38.5,19.2,38.5z M4.6,46.6h29.1c1.3,0,2.3,1,2.3,2.3v93.7c0,1.3-1,2.3-2.3,2.3H4.6
	c-1.3,0-2.3-1.1-2.3-2.3V48.9C2.3,47.6,3.4,46.6,4.6,46.6z"/>
</svg>
