<?xml version="1.0" encoding="utf-8"?>
<!-- Generator: Adobe Illustrator 21.0.2, SVG Export Plug-In . SVG Version: 6.00 Build 0)  -->
<svg version="1.1" id="Warstwa_1" xmlns="http://www.w3.org/2000/svg" xmlns:xlink="http://www.w3.org/1999/xlink" x="0px" y="0px"
	 viewBox="0 0 213.3 94.8" style="enable-background:new 0 0 213.3 94.8;" xml:space="preserve">
<style type="text/css">
	.st0{fill:#1D1D1B;}
</style>
<g>
	<path class="st0" d="M64.3,71.1l-16.9,0c-13.1,0-23.7-10.6-23.7-23.7c0-13.1,10.6-23.7,23.7-23.7l47.4,0
		c13.1,0,23.7,10.6,23.7,23.7c0,4.1-1.1,7.9-3,11.2c1,0.3,1.9,0.6,3,0.6l22,0c1-3.8,1.7-7.7,1.7-11.9C142.2,21.2,121,0,94.8,0H47.4
		C21.2,0,0,21.2,0,47.4c0,26.2,21.2,47.4,47.4,47.4h35.9C75.1,88.7,68.5,80.6,64.3,71.1z"/>
	<path class="st0" d="M165.9,0L130,0c8.2,6.1,14.9,14.2,19.1,23.7l16.9,0c13.1,0,23.7,10.6,23.7,23.7c0,13.1-10.6,23.7-23.7,23.7
		h-47.4c-13.1,0-23.7-10.6-23.7-23.7c0-4.1,1.1-7.9,3-11.2c-1-0.3-1.9-0.6-3-0.6l-22,0c-1,3.8-1.7,7.7-1.7,11.9
		c0,26.2,21.2,47.4,47.4,47.4l47.4,0c26.2,0,47.4-21.2,47.4-47.4C213.3,21.2,192.1,0,165.9,0z"/>
</g>
</svg>
