<?xml version="1.0" encoding="utf-8"?>
<!-- Generator: Adobe Illustrator 21.0.2, SVG Export Plug-In . SVG Version: 6.00 Build 0)  -->
<svg version="1.1" id="Warstwa_1" xmlns="http://www.w3.org/2000/svg" xmlns:xlink="http://www.w3.org/1999/xlink" x="0px" y="0px"
	 viewBox="0 0 163.3 195.3" style="enable-background:new 0 0 163.3 195.3;" xml:space="preserve">
<style type="text/css">
	.st0{fill:none;}
	.st1{fill:#1D1D1B;}
</style>
<g>
	<path class="st0" d="M128.4,155.1c-4.1,0-7.5,3.4-7.5,7.5c0,3,1.7,5.5,4.3,6.7v13.8h6.5v-13.8c2.5-1.2,4.3-3.8,4.3-6.7
		C135.9,158.4,132.5,155.1,128.4,155.1z"/>
	<path class="st0" d="M95.7,49.2c0-17.7-14.5-32-32.4-32S31,31.5,31,49.2c0,17.7,14.5,32,32.4,32S95.7,66.8,95.7,49.2z"/>
	<path class="st0" d="M128.4,123.6c-4.4,0-7.8,1.3-10.5,4c-4.9,5-6,13.5-6.2,17.1h33.8c-0.3-3.7-1.5-12.1-6.5-17.1
		C136.3,124.9,132.9,123.6,128.4,123.6z"/>
	<path class="st1" d="M63.4,114.1c8.5,0,16.4,2.3,23.3,6.3c2.2-4.9,5.2-9.7,9.4-14.1c0.1-0.1,0.2-0.2,0.3-0.3
		c-7-4.3-14.9-7.3-23.4-8.7c22.8-4.4,40-24.3,40-48.2C112.9,22,90.7,0,63.4,0C36,0,13.9,22,13.9,49.2C13.9,73,31,92.9,53.7,97.4
		C23.3,102,0,128.2,0,159.9v0.4v20.8h61.1h13.3v-17.2H61.1H17.2v-3.6C17.2,134.8,37.9,114.1,63.4,114.1z M31,49.2
		c0-17.7,14.5-32,32.4-32s32.4,14.4,32.4,32c0,17.7-14.5,32-32.4,32S31,66.8,31,49.2z"/>
	<path class="st1" d="M157,144.9c-0.3-4.6-1.7-17.1-9.8-25.3c-4.9-4.9-11.2-7.4-18.8-7.4c-7.6,0-13.9,2.5-18.7,7.5
		c-7.9,8.1-9.2,20.4-9.4,25.2c-3.9,0.5-6.9,3.7-6.9,7.7v35c0,4.3,3.5,7.8,7.8,7.8h54.3c4.3,0,7.8-3.5,7.8-7.8v-35
		C163.3,148.7,160.6,145.6,157,144.9z M131.6,169.3v13.8h-6.5v-13.8c-2.5-1.2-4.3-3.8-4.3-6.7c0-4.1,3.4-7.5,7.5-7.5
		s7.5,3.4,7.5,7.5C135.9,165.5,134.1,168.1,131.6,169.3z M111.8,144.7c0.2-3.7,1.2-12.1,6.2-17.1c2.6-2.7,6.1-4,10.5-4
		c4.4,0,7.9,1.3,10.6,4c5,5,6.2,13.4,6.5,17.1H111.8z"/>
</g>
</svg>
