<?xml version="1.0" encoding="utf-8"?>
<!-- Generator: Adobe Illustrator 21.0.2, SVG Export Plug-In . SVG Version: 6.00 Build 0)  -->
<svg version="1.1" id="Warstwa_1" xmlns="http://www.w3.org/2000/svg" xmlns:xlink="http://www.w3.org/1999/xlink" x="0px" y="0px"
	 viewBox="0 0 343.3 479.5" style="enable-background:new 0 0 343.3 479.5;" xml:space="preserve">
<style type="text/css">
	.st0{fill:#1D1D1B;}
</style>
<g>
	<path class="st0" d="M171.7,0C76.5,0-0.6,85.1,0,189.9c0,0.4,0,0.8,0.1,1.2l0.4,5.4c0.3,3.3,1,8.4,2.1,14.5
		c6.2,36.6,19.8,71.6,39.8,103l111.8,156.6c8.6,12.1,26.6,12.1,35.2,0l112-156.9c21.3-33.5,35.6-71.2,41-110.6
		c0.7-4.8,1.1-8.9,1.1-11.7c0-0.1,0-0.2,0-0.3c0-0.8,0.1-1.6,0.1-2.4C343.3,84.5,266.5,0,171.7,0z M171.7,268.2
		c-47.2,0-85.5-38.3-85.5-85.5s38.3-85.5,85.5-85.5s85.5,38.3,85.5,85.5S218.9,268.2,171.7,268.2z"/>
</g>
</svg>
