<?xml version="1.0" encoding="utf-8"?>
<!-- Generator: Adobe Illustrator 21.0.2, SVG Export Plug-In . SVG Version: 6.00 Build 0)  -->
<svg version="1.1" id="Warstwa_1" xmlns="http://www.w3.org/2000/svg" xmlns:xlink="http://www.w3.org/1999/xlink" x="0px" y="0px"
	 viewBox="0 0 149.7 101.8" style="enable-background:new 0 0 149.7 101.8;" xml:space="preserve">
<style type="text/css">
	.st0{fill:#1D1D1B;}
</style>
<g>
	<path class="st0" d="M10.3,83.5C8.5,83.5,7,82,7,80.2V59h13.5l0,8.6c0,1.9,1.4,3.6,3.3,3.7c2,0.1,3.7-1.5,3.7-3.5V59h8.2v-1.3V52
		h-8.2l0-4.7c0-1.9-1.4-3.6-3.3-3.7c-2-0.1-3.7,1.5-3.7,3.5V52H7V35.3c0-1.8,1.5-3.3,3.3-3.3h25.4c0.1-2.5,0.6-4.8,1.4-7h-9.6
		c0-0.1,0-0.1,0-0.2v-6.4H38c2-2.4,4.5-4.3,7.4-5.7c0.7-0.3,0.5-1.3-0.3-1.3H24c-1.9,0-3.5,1.6-3.5,3.5v9.9c0,0.1,0,0.1,0,0.2H10.3
		C4.6,24.9,0,29.6,0,35.3v19.4v1.7v23.8c0,5.7,4.6,10.3,10.3,10.3h25.4v-7H10.3z"/>
	<path class="st0" d="M136.4,17.5h-13.1c0,0,0,0,0,0l0-13c0-2.5-2-4.5-4.5-4.5h-4.5H80h-4.5C73,0,71,2,71,4.5V9v7.9v0.4
		c0,0.1,0,0.1,0,0.2H57.9c-7.3,0-13.3,5.9-13.3,13.3v21.6v3.4v2.2v3.4v27.2c0,7.3,5.9,13.3,13.3,13.3h78.5c7.3,0,13.3-5.9,13.3-13.3
		V61.3v-9V30.8C149.7,23.4,143.8,17.5,136.4,17.5z M80,17.3V9h34.3l0,8.5H80C80,17.4,80,17.4,80,17.3z M140.7,88.6
		c0,2.4-1.9,4.3-4.3,4.3H57.9c-2.4,0-4.3-1.9-4.3-4.3V61.3H71v11.3c0,2.5,2,4.5,4.5,4.5s4.5-2,4.5-4.5V61.3h34.3v11.3
		c0,2.5,2,4.5,4.5,4.5s4.5-2,4.5-4.5V61.3h17.4V88.6z M140.7,52.3h-17.4V46c0-2.5-2-4.5-4.5-4.5s-4.5,2-4.5,4.5v6.3H80V46
		c0-2.5-2-4.5-4.5-4.5S71,43.5,71,46v6.3H53.7V30.8c0-2.4,1.9-4.3,4.3-4.3h12.6H80h34.3h9h13.1c2.4,0,4.3,1.9,4.3,4.3V52.3z"/>
</g>
</svg>
