<?xml version="1.0" encoding="utf-8"?>
<!-- Generator: Adobe Illustrator 21.0.2, SVG Export Plug-In . SVG Version: 6.00 Build 0)  -->
<svg version="1.1" id="Warstwa_1" xmlns="http://www.w3.org/2000/svg" xmlns:xlink="http://www.w3.org/1999/xlink" x="0px" y="0px"
	 viewBox="0 0 495 467.3" style="enable-background:new 0 0 495 467.3;" xml:space="preserve">
<style type="text/css">
	.st0{fill:none;}
	.st1{fill:#1D1D1B;}
</style>
<g>
	<polygon class="st0" points="311,42.4 191.5,42.4 165.4,69.9 332.8,69.9 	"/>
	<path class="st0" d="M247.5,207.5c-32.5,0-59,26.5-59,59c0,32.5,26.5,59,59,59c32.5,0,59-26.5,59-59
		C306.5,234,280,207.5,247.5,207.5z"/>
	<path class="st0" d="M432.5,112.3H62.5c-11.1,0-20.1,9-20.1,20.1v272.3c0,11.1,9,20.1,20.1,20.1h369.9c11.1,0,20.1-9,20.1-20.1
		V132.4C452.6,121.3,443.6,112.3,432.5,112.3z M247.5,368c-56,0-101.4-45.4-101.4-101.4c0-56,45.4-101.4,101.4-101.4
		c56,0,101.4,45.4,101.4,101.4C348.9,322.6,303.5,368,247.5,368z"/>
	<path class="st1" d="M432.5,69.9h-45.6c-0.1-0.2-0.3-0.4-0.4-0.6L337.9,8c-4-5.1-10.1-8-16.6-8H182.3C176.5,0,171,2.4,167,6.6
		l-57.2,60.3c-0.9,0.9-1.7,2-2.4,3H62.5C28,69.9,0,97.9,0,132.4v272.3c0,34.5,28,62.5,62.5,62.5h369.9c34.5,0,62.5-28,62.5-62.5
		V132.4C495,97.9,467,69.9,432.5,69.9z M191.5,42.4H311l21.8,27.5H165.4L191.5,42.4z M452.6,404.8c0,11.1-9,20.1-20.1,20.1H62.5
		c-11.1,0-20.1-9-20.1-20.1V132.4c0-11.1,9-20.1,20.1-20.1h369.9c11.1,0,20.1,9,20.1,20.1V404.8z"/>
	<path class="st1" d="M247.5,165.1c-56,0-101.4,45.4-101.4,101.4c0,56,45.4,101.4,101.4,101.4c56,0,101.4-45.4,101.4-101.4
		C348.9,210.5,303.5,165.1,247.5,165.1z M247.5,325.5c-32.5,0-59-26.5-59-59c0-32.5,26.5-59,59-59c32.5,0,59,26.5,59,59
		C306.5,299.1,280,325.5,247.5,325.5z"/>
</g>
</svg>
