<?xml version="1.0" encoding="utf-8"?>
<!-- Generator: Adobe Illustrator 21.0.2, SVG Export Plug-In . SVG Version: 6.00 Build 0)  -->
<svg version="1.1" id="Warstwa_1" xmlns="http://www.w3.org/2000/svg" xmlns:xlink="http://www.w3.org/1999/xlink" x="0px" y="0px"
	 viewBox="0 0 479.3 479.5" style="enable-background:new 0 0 479.3 479.5;" xml:space="preserve">
<style type="text/css">
	.st0{fill:#1D1D1B;}
</style>
<g>
	<g>
		<path class="st0" d="M479.3,239.6l-45.1-45.1l20.7-60.4l-45.7-15.6V70.2h-52l-18.2-48.7l-56.6,21.2L239.6,0l-45.1,45.1l-60.4-20.7
			l-15.6,45.7H70.2v52l-48.7,18.2l21.2,56.6L0,239.6l45.1,45.1l-20.7,60.4l45.7,15.6v48.3h52l18.2,48.7l56.6-21.2l42.7,42.7
			l45.1-45.1l60.4,20.7l15.6-45.7h48.3v-52l48.7-18.2l-21.2-56.6L479.3,239.6z M239.6,388.4c-82,0-148.8-66.7-148.8-148.8
			S157.6,90.8,239.6,90.8c82,0,148.8,66.7,148.8,148.8S321.7,388.4,239.6,388.4z"/>
	</g>
	<g>
		<path class="st0" d="M228.4,195.4c0,8.9-3.2,16.4-9.5,22.5c-6.3,6.1-14.3,9.2-23.9,9.2c-9.6,0-17.5-3.1-23.9-9.3
			c-6.3-6.2-9.5-13.7-9.5-22.5c0-8.8,3.2-16.3,9.5-22.5c6.3-6.2,14.3-9.3,23.9-9.3c9.6,0,17.5,3.1,23.9,9.3
			C225.2,178.9,228.4,186.4,228.4,195.4z M315.4,159.6L201.9,317.9H163l113.7-158.3H315.4z M188.2,203.4c1.7,2,4,3.1,6.7,3.1
			c2.7,0,5-1,6.8-3.1c1.8-2,2.7-4.7,2.7-8c0-3.3-0.9-6.1-2.7-8.3c-1.8-2.2-4-3.3-6.7-3.3c-2.6,0-4.9,1.1-6.7,3.3
			c-1.8,2.2-2.7,4.9-2.7,8.3C185.6,198.7,186.5,201.4,188.2,203.4z M317.6,288c0,8.9-3.2,16.4-9.5,22.5c-6.3,6.1-14.3,9.2-23.9,9.2
			c-9.6,0-17.5-3.1-23.9-9.3c-6.3-6.2-9.5-13.7-9.5-22.5c0-8.8,3.2-16.3,9.5-22.5c6.3-6.2,14.3-9.3,23.9-9.3
			c9.6,0,17.5,3.1,23.9,9.3C314.5,271.5,317.6,279.1,317.6,288z M277.4,296c1.7,2,4,3.1,6.7,3.1c2.7,0,5-1,6.8-3.1
			c1.8-2,2.7-4.7,2.7-8c0-3.3-0.9-6.1-2.7-8.3c-1.8-2.2-4-3.3-6.7-3.3c-2.6,0-4.9,1.1-6.7,3.3c-1.8,2.2-2.7,4.9-2.7,8.3
			C274.8,291.3,275.7,294,277.4,296z"/>
	</g>
</g>
</svg>
