<?xml version="1.0" encoding="utf-8"?>
<!-- Generator: Adobe Illustrator 21.0.2, SVG Export Plug-In . SVG Version: 6.00 Build 0)  -->
<svg version="1.1" id="Warstwa_1" xmlns="http://www.w3.org/2000/svg" xmlns:xlink="http://www.w3.org/1999/xlink" x="0px" y="0px"
	 viewBox="0 0 145.1 145.1" style="enable-background:new 0 0 145.1 145.1;" xml:space="preserve">
<style type="text/css">
	.st0{fill:#1D1D1B;}
</style>
<path class="st0" d="M72.7,17.3c3,7.2,8.7,13.1,16.2,16.3c3.5,1.5,7.3,2.2,11.3,2.2c4,0,8-0.8,11.7-2.3c-2.9,7.2-3.1,15.4,0,22.8
	c3.1,7.5,8.9,13.3,16.2,16.3c-7.3,3-13.3,8.8-16.4,16.2c-3.2,7.6-3,15.9,0,23.2c-3.7-1.5-7.8-2.3-11.9-2.3c-3.9,0-7.6,0.7-11.1,2.1
	c-7.4,3-13.1,8.8-16.2,15.9c-3-7.2-8.7-13.1-16.2-16.2c-3.5-1.5-7.4-2.2-11.3-2.2c-4,0-8,0.8-11.7,2.3c2.9-7.2,3.1-15.4,0-22.9
	c-3.1-7.5-9.1-13.3-16.3-16.4c7.4-3,13.4-8.7,16.6-16.1c3.2-7.6,3-16,0-23.2c3.7,1.5,7.8,2.3,11.9,2.3c3.9,0,7.6-0.7,11.1-2.1
	C63.9,30.1,69.6,24.3,72.7,17.3 M72.6,102.4c16.4,0,29.7-13.3,29.7-29.7S89,43,72.6,43C56.3,43,43,56.3,43,72.7
	S56.3,102.4,72.6,102.4 M72.6,0c-2.7,0-5.3,0.1-8,0.4c-2.1,0.2-3.7,2-3.6,4.2c0.2,6.7-3.7,12.9-9.9,15.5c-1.8,0.7-3.7,1.1-5.7,1.1
	c-4.6,0-9.2-1.9-12.2-5.2c-0.8-0.9-1.9-1.3-3-1.3c-0.9,0-1.8,0.3-2.5,0.9c-4.3,3.4-8.3,7.3-11.7,11.6c-1.3,1.7-1.1,4.1,0.4,5.5
	c5,4.6,6.7,11.8,4.1,18.1c-2.5,6-8.7,9.8-15.8,9.8c-0.1,0-0.1,0-0.2,0c-2.2,0-3.8,1.5-4,3.6c-0.6,5.5-0.6,11,0,16.5
	c0.2,2,2.7,3.6,4.8,3.6c0.1,0,0.3,0,0.4,0c6.2,0,12.1,3.9,14.5,9.9c2.5,6.2,0.9,13.4-4.1,17.9c-1.6,1.4-1.7,3.8-0.4,5.5
	c3.4,4.3,7.2,8.2,11.5,11.6c0.7,0.6,1.6,0.9,2.5,0.9c1.1,0,2.2-0.5,3-1.3c3-3.3,7.7-5.2,12.2-5.2c2,0,4,0.4,5.9,1.1
	c6.3,2.6,10.2,8.9,9.8,15.7c-0.1,2.1,1.4,4,3.6,4.2c2.8,0.3,5.6,0.5,8.4,0.5c2.7,0,5.3-0.1,8-0.4c2.1-0.2,3.7-2,3.6-4.2
	c-0.2-6.7,3.7-12.9,9.9-15.5c1.8-0.7,3.8-1.1,5.7-1.1c4.6,0,9.2,1.9,12.2,5.2c0.8,0.9,1.9,1.3,3,1.3c0.9,0,1.8-0.3,2.5-0.9
	c4.3-3.4,8.3-7.3,11.7-11.6c1.3-1.7,1.1-4.1-0.4-5.5c-5-4.6-6.7-11.8-4.1-18.1c2.5-5.9,8.4-9.8,14.8-9.8l0.9,0c0.1,0,0.2,0,0.3,0
	c2,0,3.7-1.5,3.9-3.6c0.6-5.5,0.6-11,0-16.5c-0.2-2-2.6-3.6-4.7-3.6c-6.6,0-12.5-3.9-15-9.9c-2.5-6.2-0.9-13.4,4.1-17.9
	c1.6-1.4,1.7-3.8,0.4-5.5c-3.4-4.3-7.3-8.2-11.5-11.6c-0.7-0.6-1.6-0.9-2.5-0.9c-1.1,0-2.2,0.4-3,1.3c-3,3.3-7.7,5.2-12.2,5.2
	c-2,0-4-0.4-5.9-1.1c-6.2-2.6-10.2-9-9.8-15.7c0.1-2.1-1.4-4-3.6-4.2C78.2,0.2,75.4,0,72.6,0L72.6,0z M72.6,88.2
	c-8.6,0-15.5-7-15.5-15.5c0-8.6,7-15.5,15.5-15.5c8.6,0,15.5,7,15.5,15.5C88.2,81.2,81.2,88.2,72.6,88.2L72.6,88.2z"/>
</svg>
