<?xml version="1.0" encoding="utf-8"?>
<!-- Generator: Adobe Illustrator 21.0.2, SVG Export Plug-In . SVG Version: 6.00 Build 0)  -->
<svg version="1.1" id="Warstwa_1" xmlns="http://www.w3.org/2000/svg" xmlns:xlink="http://www.w3.org/1999/xlink" x="0px" y="0px"
	 viewBox="0 0 194.7 195.3" style="enable-background:new 0 0 194.7 195.3;" xml:space="preserve">
<style type="text/css">
	.st0{fill:none;}
	.st1{fill:#1D1D1B;}
</style>
<g>
	<path class="st0" d="M126,106.4l-15,16.7v1.8v21.5c0,0.1,0.1,0.2,0.3,0.2l29.2,0c0.2,0,0.3-0.1,0.3-0.2v-23.5l-8.7-9.7L126,106.4z"
		/>
	<path class="st0" d="M115.3,80.3H89.8H74v9v18.9v16.7v51.9h103.9V80.3h-45.9H115.3z M158.2,129.8c-0.1,1.3-0.7,2.5-1.7,3.3
		c-1.6,1.3-4,1.5-5.7,0.5l0,15.2c0,4.2-3.6,7.7-7.9,7.7l-33.7,0c-2.9,0-5.5-1.5-6.9-3.9c-0.7-1.2-1-2.5-1-3.8v-15.1
		c-1.7,0.9-4,0.7-5.5-0.6c-1-0.8-1.6-2-1.7-3.3c-0.1-1.3,0.3-2.5,1.2-3.5l1.3-1.4l15-16.7l4-4.5l6.9-7.7c0.9-1,2.3-1.6,3.7-1.6
		c1.6,0,2.9,0.6,3.9,1.6l2.3,2.5l24.9,27.7C157.8,127.3,158.3,128.5,158.2,129.8z"/>
	<path class="st1" d="M16.7,16.7h98.6v37.6h16.7v-44c0-5.7-4.6-10.3-10.3-10.3H10.3C4.6,0,0,4.6,0,10.3v104.3
		c0,5.7,4.6,10.3,10.3,10.3H48v-16.7H16.7V16.7z"/>
	<path class="st1" d="M77.8,54.3h12.6L69.7,31.2c-0.9-1-2.2-1.6-3.7-1.6c-1.4,0-2.7,0.6-3.6,1.6L36.3,60.3c-0.8,0.9-1.3,2.1-1.2,3.4
		c0.1,1.2,0.7,2.4,1.7,3.2c1.5,1.2,3.7,1.4,5.3,0.5V82c0,1.3,0.3,2.5,1,3.6c1.1,1.8,2.9,3.1,4.9,3.5h3.5l0.1-26.5v-5.4l14.4-16
		L77.8,54.3z"/>
	<path class="st1" d="M184.4,63.6h-52.3h-16.7H96.9H80.2H67.6c-5.7,0-10.3,4.6-10.3,10.3v5.9v9.5v18.9v16.7v58.3
		c0,5.7,4.6,10.3,10.3,10.3h116.7c5.7,0,10.3-4.6,10.3-10.3V73.9C194.7,68.2,190.1,63.6,184.4,63.6z M177.9,176.8H74v-51.9v-16.7
		V89.3v-9h15.8h25.5h16.7h45.9V176.8z"/>
	<path class="st1" d="M129.8,96.1c-0.9-1-2.3-1.6-3.9-1.6c-1.4,0-2.8,0.6-3.7,1.6l-6.9,7.7l-4,4.5l-15,16.7l-1.3,1.4
		c-0.9,1-1.3,2.2-1.2,3.5c0.1,1.3,0.7,2.5,1.7,3.3c1.5,1.3,3.8,1.5,5.5,0.6v15.1c0,1.3,0.4,2.6,1,3.8c1.4,2.4,4.1,3.9,6.9,3.9
		l33.7,0c4.4,0,7.9-3.4,7.9-7.7l0-15.2c1.7,1,4.1,0.8,5.7-0.5c1-0.8,1.6-2,1.7-3.3c0.1-1.3-0.3-2.5-1.2-3.5l-24.9-27.7L129.8,96.1z
		 M140.8,122.9v23.5c0,0.1-0.1,0.2-0.3,0.2l-29.2,0c-0.2,0-0.3-0.1-0.3-0.2v-21.5v-1.8l15-16.7l6.1,6.7L140.8,122.9z"/>
</g>
</svg>
