<?xml version="1.0" encoding="utf-8"?>
<!-- Generator: Adobe Illustrator 21.0.2, SVG Export Plug-In . SVG Version: 6.00 Build 0)  -->
<svg version="1.1" id="Warstwa_1" xmlns="http://www.w3.org/2000/svg" xmlns:xlink="http://www.w3.org/1999/xlink" x="0px" y="0px"
	 viewBox="0 0 88.7 99.9" style="enable-background:new 0 0 88.7 99.9;" xml:space="preserve">
<style type="text/css">
	.st0{fill:#1D1D1B;}
</style>
<g>
	<g>
		<path class="st0" d="M19.3,75.4V41.4c0-0.1,0-0.3,0-0.4v-2.2L43,11.3l23.3,27.1v2.3c0.1,0.2,0.1,0.4,0.1,0.7v14.6h0.7h8.3v-7
			l2.6,3.1c0.9,1,2.1,1.6,3.4,1.6c1,0,2.1-0.4,2.9-1.1c1.9-1.6,2.1-4.5,0.5-6.3L46.5,1.5C45.6,0.5,44.3,0,43,0
			c-1.3,0-2.6,0.5-3.5,1.5L1.1,46.2c-1.6,1.9-1.4,4.7,0.5,6.3c0.8,0.7,1.9,1.1,2.9,1.1c1.3,0,2.5-0.5,3.4-1.6l2.4-2.8v26.1
			c0,6.1,5,11.1,11.1,11.1h23.1v-0.4v-8.3v-0.2H21.4C20.2,77.5,19.3,76.5,19.3,75.4z"/>
	</g>
	<path class="st0" d="M87.5,79c-1.7,0-3.1-1-3.7-2.5c-0.6-1.5-0.2-3.3,1-4.5c0.4-0.4,0.4-0.9,0.1-1.4c-0.8-1.1-1.8-2-2.9-2.9
		c-0.2-0.1-0.4-0.2-0.6-0.2c-0.3,0-0.5,0.1-0.7,0.3c-0.7,0.8-1.9,1.3-3,1.3c-0.5,0-1-0.1-1.5-0.3c-1.6-0.7-2.5-2.2-2.4-3.9
		c0-0.5-0.4-1-0.9-1.1c-0.7-0.1-1.4-0.1-2.1-0.1c-0.7,0-1.3,0-2,0.1c-0.5,0.1-0.9,0.5-0.9,1c0.1,1.7-0.9,3.2-2.5,3.8
		C65,69,64.5,69.1,64,69.1c-1.1,0-2.3-0.5-3-1.3c-0.2-0.2-0.5-0.3-0.7-0.3c-0.2,0-0.4,0.1-0.6,0.2c-1.1,0.8-2.1,1.8-2.9,2.9
		c-0.3,0.4-0.3,1,0.1,1.4c1.3,1.1,1.7,2.9,1,4.5c-0.6,1.5-2.2,2.4-3.9,2.4c0,0,0,0,0,0c-0.6,0-0.9,0.4-1,0.9c-0.2,1.4-0.2,2.7,0,4.1
		c0.1,0.5,0.7,0.9,1.2,0.9c0,0,0.1,0,0.1,0c1.5,0,3,1,3.6,2.5c0.6,1.5,0.2,3.3-1,4.5c-0.4,0.4-0.4,0.9-0.1,1.4
		c0.8,1.1,1.8,2,2.9,2.9c0.2,0.1,0.4,0.2,0.6,0.2c0.3,0,0.5-0.1,0.7-0.3c0.7-0.8,1.9-1.3,3-1.3c0.5,0,1,0.1,1.5,0.3
		c1.6,0.7,2.5,2.2,2.4,3.9c0,0.5,0.4,1,0.9,1.1c0.7,0.1,1.4,0.1,2.1,0.1c0.7,0,1.3,0,2-0.1c0.5-0.1,0.9-0.5,0.9-1
		c-0.1-1.7,0.9-3.2,2.5-3.8c0.4-0.2,0.9-0.3,1.4-0.3c1.1,0,2.3,0.5,3,1.3c0.2,0.2,0.5,0.3,0.7,0.3c0.2,0,0.4-0.1,0.6-0.2
		c1.1-0.8,2.1-1.8,2.9-2.9c0.3-0.4,0.3-1-0.1-1.4c-1.3-1.1-1.7-2.9-1-4.5c0.6-1.5,2.1-2.4,3.7-2.4l0.2,0c0,0,0.1,0,0.1,0
		c0.5,0,0.9-0.4,1-0.9c0.2-1.4,0.2-2.7,0-4.1C88.6,79.3,88,79,87.5,79z M70.7,87.9c-3.3,0-6-2.7-6-6c0-3.3,2.7-6,6-6
		c3.3,0,6,2.7,6,6C76.8,85.2,74.1,87.9,70.7,87.9z"/>
</g>
</svg>
