<?xml version="1.0" encoding="utf-8"?>
<!-- Generator: Adobe Illustrator 21.0.2, SVG Export Plug-In . SVG Version: 6.00 Build 0)  -->
<svg version="1.1" id="Warstwa_1" xmlns="http://www.w3.org/2000/svg" xmlns:xlink="http://www.w3.org/1999/xlink" x="0px" y="0px"
	 viewBox="0 0 171.3 145.1" style="enable-background:new 0 0 171.3 145.1;" xml:space="preserve">
<style type="text/css">
	.st0{fill-rule:evenodd;clip-rule:evenodd;fill:#1D1D1B;}
</style>
<path class="st0" d="M166.5,2.7c-6.8,4.2-14.3,7.2-22.3,8.9C137.8,4.4,128.7,0,118.6,0C99.2,0,83.4,16.4,83.4,36.6
	c0,2.9,0.3,5.7,0.9,8.3C55.1,43.4,29.3,28.8,11.9,6.7c-3,5.4-4.8,11.7-4.8,18.4c0,12.7,6.2,23.9,15.6,30.5
	c-5.8-0.2-11.2-1.8-15.9-4.6v0.5c0,17.7,12.1,32.5,28.2,35.9c-2.9,0.8-6,1.3-9.3,1.3c-2.3,0-4.5-0.2-6.6-0.7
	c4.5,14.5,17.4,25.1,32.8,25.4C40,123.1,24.8,129,8.4,129c-2.8,0-5.6-0.2-8.4-0.5c15.6,10.4,34,16.4,53.9,16.4
	c64.6,0,100-55.8,100-104.1l-0.1-4.7c6.9-5.1,12.9-11.6,17.6-18.9c-6.3,2.9-13.1,4.9-20.2,5.8C158.3,18.4,163.9,11.2,166.5,2.7z"/>
</svg>
