<?xml version="1.0" encoding="utf-8"?>
<!-- Generator: Adobe Illustrator 21.0.2, SVG Export Plug-In . SVG Version: 6.00 Build 0)  -->
<svg version="1.1" id="Warstwa_1" xmlns="http://www.w3.org/2000/svg" xmlns:xlink="http://www.w3.org/1999/xlink" x="0px" y="0px"
	 viewBox="0 0 194.7 184.7" style="enable-background:new 0 0 194.7 184.7;" xml:space="preserve">
<style type="text/css">
	.st0{fill:#1D1D1B;}
</style>
<g>
	<path class="st0" d="M184.4,129.7c-5.7,0-10.3,4.6-10.3,10.3v9.2c0,8.2-6.6,14.8-14.8,14.8H35.4c-8.2,0-14.8-6.6-14.8-14.8V140
		c0-5.7-4.6-10.3-10.3-10.3S0,134.3,0,140v9.2c0,19.6,15.9,35.4,35.4,35.4h123.8c19.6,0,35.4-15.9,35.4-35.4V140
		C194.7,134.3,190.1,129.7,184.4,129.7z"/>
	<path class="st0" d="M47.4,77.4l38.8-38.8v90.7c0,5.3,4.9,9.5,11,9.5c6.1,0,11-4.3,11-9.5V38.6l39.2,39.2c2.2,2.2,5.2,3.4,8.1,3.4
		s5.9-1.1,8.1-3.4c4.5-4.5,4.5-11.7,0-16.2L105.2,3.4c-4.5-4.5-11.7-4.5-16.2,0L31.2,61.2c-4.5,4.5-4.5,11.7,0,16.2
		C35.7,81.9,42.9,81.9,47.4,77.4z"/>
</g>
</svg>
