<svg version="1.1" id="Warstwa_1" xmlns="http://www.w3.org/2000/svg" xmlns:xlink="http://www.w3.org/1999/xlink" x="0px" y="0px" viewBox="0 0 194.7 195.3" style="enable-background:new 0 0 194.7 195.3;" xml:space="preserve">
	<g>
		<path class="st0" d="M14.7,25.6h16.1v3.3c0,3.5,2.8,6.3,6.3,6.3s6.3-2.8,6.3-6.3v-3.3h11.7v3.3c0,3.5,2.8,6.3,6.3,6.3
			c3.5,0,6.3-2.8,6.3-6.3v-3.3h11.7v3.3c0,3.5,2.8,6.3,6.3,6.3c3.5,0,6.3-2.8,6.3-6.3v-3.3h11.8v3.3c0,3.5,2.8,6.3,6.3,6.3
			c3.5,0,6.3-2.8,6.3-6.3v-3.3h11.5v3.3c0,3.5,2.8,6.3,6.3,6.3c3.5,0,6.3-2.8,6.3-6.3v-3.3h16.1v93.1h0.5h13.5h0.1h0.6V19.9
			c0-5-4.1-9-9-9h-21.7V6.3c0-3.5-2.8-6.3-6.3-6.3c-3.5,0-6.3,2.8-6.3,6.3v4.6h-11.5V6.3c0-3.5-2.8-6.3-6.3-6.3
			c-3.5,0-6.3,2.8-6.3,6.3v4.6H92V6.3C92,2.8,89.2,0,85.7,0c-3.5,0-6.3,2.8-6.3,6.3v4.6H67.7V6.3c0-3.5-2.8-6.3-6.3-6.3
			c-3.5,0-6.3,2.8-6.3,6.3v4.6H43.4V6.3c0-3.5-2.8-6.3-6.3-6.3s-6.3,2.8-6.3,6.3v4.6H9c-5,0-9,4.1-9,9v143.1c0,5,4.1,9,9,9h107.9
			v-1.3v-13.4H14.7V25.6z"/>
		<rect x="29.4" y="56.9" class="st0" width="16.5" height="15.6"/>
		<rect x="61.2" y="56.9" class="st0" width="16.5" height="15.6"/>
		<rect x="93" y="56.9" class="st0" width="16.5" height="15.6"/>
		<rect x="125" y="56.9" class="st0" width="16.5" height="15.6"/>
		<rect x="29.4" y="85.2" class="st0" width="16.5" height="15.6"/>
		<rect x="61.2" y="85.2" class="st0" width="16.5" height="15.6"/>
		<rect x="93" y="85.2" class="st0" width="16.5" height="15.6"/>
		<rect x="125" y="85.2" class="st0" width="16.5" height="15.6"/>
		<rect x="29.4" y="115.8" class="st0" width="16.5" height="15.6"/>
		<rect x="61.2" y="115.8" class="st0" width="16.5" height="15.6"/>
		<polygon class="st0" points="170.7,157.2 170.7,134.9 170.7,134.9 157.1,134.9 157.1,157.2 133.2,157.2 133.2,170.8 157.1,170.8 
			157.1,170.9 157.1,193.1 170.7,193.1 170.7,170.8 194.7,170.8 194.7,157.2 	"/>
	</g>
</svg>
