<svg version="1.1" id="Warstwa_1" xmlns="http://www.w3.org/2000/svg" xmlns:xlink="http://www.w3.org/1999/xlink" x="0px" y="0px" viewBox="0 0 194.7 184.1" style="enable-background:new 0 0 194.7 184.1;" xml:space="preserve">
	<g>
		<path class="st0" d="M177.9,16.8v150.6H16.8V16.8H177.9 M184.3,0h-174C4.6,0,0,4.6,0,10.3v163.5c0,5.7,4.6,10.3,10.3,10.3h174
			c5.7,0,10.3-4.6,10.3-10.3V10.3C194.7,4.6,190,0,184.3,0L184.3,0z"/>
		<polygon class="st0" points="105.1,58.8 105,58.8 89.6,58.8 89.6,84.3 62.2,84.3 62.2,99.8 89.6,99.8 89.6,99.9 89.6,125.3 
			105.1,125.3 105.1,99.8 132.4,99.8 132.4,84.3 105.1,84.3 	"/>
	</g>
</svg>
