<svg version="1.1" id="Warstwa_1" xmlns="http://www.w3.org/2000/svg" xmlns:xlink="http://www.w3.org/1999/xlink" x="0px" y="0px" viewBox="0 0 194.7 195.5" style="enable-background:new 0 0 194.7 195.5;" xml:space="preserve">
	<g>
		<path class="st0" fill="none" d="M159.7,32.8c0,4-3.2,7.2-7.2,7.2c-4,0-7.2-3.2-7.2-7.2V29h-13.1v3.8c0,4-3.2,7.2-7.2,7.2c-4,0-7.2-3.2-7.2-7.2
			V29h-13.4v3.8c0,4-3.2,7.2-7.2,7.2c-4,0-7.2-3.2-7.2-7.2V29H76.9v3.8c0,4-3.2,7.2-7.2,7.2c-4,0-7.2-3.2-7.2-7.2V29H49.3v3.8
			c0,4-3.2,7.2-7.2,7.2s-7.2-3.2-7.2-7.2V29H16.7v149.8H178V29h-18.3V32.8z M52.2,149.3H33.4v-17.7h18.8V149.3z M52.2,114.4H33.4
			V96.8h18.8V114.4z M52.2,82.3H33.4V64.6h18.8V82.3z M88.3,149.3H69.5v-17.7h18.8V149.3z M88.3,114.4H69.5V96.8h18.8V114.4zM88.3,82.3H69.5V64.6h18.8V82.3z M124.5,114.4h-18.8V96.8h18.8V114.4z M124.5,82.3h-18.8V64.6h18.8V82.3z M160.8,114.4H142V96.8
			h18.8V114.4z M160.8,82.3H142V64.6h18.8V82.3z"/>
		<path class="st1" d="M184.4,12.4h-24.7V7.2c0-4-3.2-7.2-7.2-7.2c-4,0-7.2,3.2-7.2,7.2v5.2h-13.1V7.2c0-4-3.2-7.2-7.2-7.2
			c-4,0-7.2,3.2-7.2,7.2v5.2h-13.4V7.2c0-4-3.2-7.2-7.2-7.2c-4,0-7.2,3.2-7.2,7.2v5.2H76.9V7.2c0-4-3.2-7.2-7.2-7.2
			c-4,0-7.2,3.2-7.2,7.2v5.2H49.3V7.2c0-4-3.2-7.2-7.2-7.2s-7.2,3.2-7.2,7.2v5.2H10.3C4.6,12.4,0,17,0,22.6v162.6
			c0,5.7,4.6,10.3,10.3,10.3h174.1c5.7,0,10.3-4.6,10.3-10.3V22.6C194.7,17,190.1,12.4,184.4,12.4z M178,178.9H16.7V29h18.3v3.8
			c0,4,3.2,7.2,7.2,7.2s7.2-3.2,7.2-7.2V29h13.2v3.8c0,4,3.2,7.2,7.2,7.2c4,0,7.2-3.2,7.2-7.2V29h13.2v3.8c0,4,3.2,7.2,7.2,7.2
			c4,0,7.2-3.2,7.2-7.2V29h13.4v3.8c0,4,3.2,7.2,7.2,7.2c4,0,7.2-3.2,7.2-7.2V29h13.1v3.8c0,4,3.2,7.2,7.2,7.2c4,0,7.2-3.2,7.2-7.2
			V29H178V178.9z"/>
		<rect x="33.4" y="64.6" class="st1" width="18.8" height="17.7"/>
		<rect x="69.5" y="64.6" class="st1" width="18.8" height="17.7"/>
		<rect x="105.7" y="64.6" class="st1" width="18.8" height="17.7"/>
		<rect x="142" y="64.6" class="st1" width="18.8" height="17.7"/>
		<rect x="33.4" y="96.8" class="st1" width="18.8" height="17.7"/>
		<rect x="69.5" y="96.8" class="st1" width="18.8" height="17.7"/>
		<rect x="105.7" y="96.8" class="st1" width="18.8" height="17.7"/>
		<rect x="142" y="96.8" class="st1" width="18.8" height="17.7"/>
		<rect x="33.4" y="131.6" class="st1" width="18.8" height="17.7"/>
		<rect x="69.5" y="131.6" class="st1" width="18.8" height="17.7"/>
	</g>
</svg>
