<svg version="1.1" id="Warstwa_1" xmlns="http://www.w3.org/2000/svg" xmlns:xlink="http://www.w3.org/1999/xlink" x="0px" y="0px" viewBox="0 0 500 495" style="enable-background:new 0 0 500 495;" xml:space="preserve">
  <path class="st0" d="M185.6,309.4v142.8H42.8V309.4H185.6 M200.6,266.6H27.9C12.5,266.6,0,279,0,294.4v172.7
    C0,482.6,12.5,495,27.9,495h172.7c15.4,0,27.9-12.5,27.9-27.9V294.4C228.5,279,216,266.6,200.6,266.6L200.6,266.6z"/>
  <path class="st0" d="M457.2,309.4v142.8H314.4V309.4H457.2 M472.1,266.6H299.4c-15.4,0-27.9,12.5-27.9,27.9v172.7
    c0,15.4,12.5,27.9,27.9,27.9h172.7c15.4,0,27.9-12.5,27.9-27.9V294.4C500,279,487.5,266.6,472.1,266.6L472.1,266.6z"/>
  <path class="st0" d="M185.6,42.8v142.8H42.8V42.8H185.6 M200.6,0H27.9C12.5,0,0,12.5,0,27.9v172.7c0,15.4,12.5,27.9,27.9,27.9h172.7
    c15.4,0,27.9-12.5,27.9-27.9V27.9C228.5,12.5,216,0,200.6,0L200.6,0z"/>
  <path class="st0" d="M457.2,42.8v142.8H314.4V42.8H457.2 M472.1,0H299.4c-15.4,0-27.9,12.5-27.9,27.9v172.7
    c0,15.4,12.5,27.9,27.9,27.9h172.7c15.4,0,27.9-12.5,27.9-27.9V27.9C500,12.5,487.5,0,472.1,0L472.1,0z"/>
</svg>
