<svg version="1.1" id="Warstwa_1" xmlns="http://www.w3.org/2000/svg" xmlns:xlink="http://www.w3.org/1999/xlink" x="0px" y="0px" viewBox="0 0 209.3 233.3" style="enable-background:new 0 0 209.3 233.3;" xml:space="preserve">
	<g>
		<path class="st0" d="M180.8,207.8H38.3l-0.9,0.4l0.1-0.4H25.5V52.6h79.8l20.5-25.5H16.6C7.4,27.1,0,34.5,0,43.6v173.1
			c0,9.2,7.4,16.6,16.6,16.6h173.1c9.2,0,16.6-7.4,16.6-16.6V68.7l-25.5,31.8V207.8z"/>
		<polygon class="st0" points="151.9,26.2 81.2,114.3 120.3,142.6 121,143.2 191.7,55.1 152.7,26.8 	"/>
		<path class="st0" d="M200.1,5.4L200.1,5.4c-4.5-3.6-10-5.4-15.4-5.4c-7.2,0-14.3,3.1-19.2,9.2l-1.2,1.5l39.8,28.9
			C212.3,29,210.6,13.8,200.1,5.4z"/>
		<polygon class="st0" points="68.6,130 61.8,177.8 106.9,160.7 108.6,158.6 68.8,129.8 	"/>
	</g>
</svg>
