<?xml version="1.0" encoding="utf-8"?>
<!DOCTYPE svg PUBLIC "-//W3C//DTD SVG 1.1//EN" "http://www.w3.org/Graphics/SVG/1.1/DTD/svg11.dtd">
<svg version="1.1" id="Layer_1" xmlns="http://www.w3.org/2000/svg" xmlns:xlink="http://www.w3.org/1999/xlink" x="0px" y="0px"
	 viewBox="0 0 567 800" enable-background="new 0 0 567 800" xml:space="preserve">
<g id="Layer_1_1_">
</g>
<path opacity="0.3" enable-background="new    " d="M561,6v788H6V6H561 M567,0H0v800h567V0L567,0z"/>
<rect x="28" y="32.664" opacity="0.08" enable-background="new    " width="168.313" height="12.1"/>
<rect x="28" y="137.115" opacity="0.04" enable-background="new    " width="455.096" height="22.836"/>
<rect x="397.646" y="32.664" opacity="0.08" enable-background="new    " width="142.942" height="29.665"/>
<rect x="28" y="50.229" opacity="0.08" enable-background="new    " width="168.313" height="12.1"/>
<rect x="28" y="575.118" opacity="0.08" enable-background="new    " width="228.425" height="5.212"/>
<rect x="28" y="482.719" opacity="0.08" enable-background="new    " width="454" height="5.212"/>
<rect x="28" y="584.877" opacity="0.08" enable-background="new    " width="228.425" height="5.212"/>
<rect x="28" y="595.025" opacity="0.08" enable-background="new    " width="228.425" height="5.212"/>
<rect x="28" y="605.564" opacity="0.08" enable-background="new    " width="228.425" height="5.212"/>
<rect x="28" y="615.322" opacity="0.08" enable-background="new    " width="228.425" height="5.212"/>
<rect x="28" y="625.471" opacity="0.08" enable-background="new    " width="228.425" height="5.212"/>
<rect x="28" y="635.399" opacity="0.08" enable-background="new    " width="228.425" height="5.212"/>
<rect x="28" y="645.158" opacity="0.08" enable-background="new    " width="228.425" height="5.212"/>
<rect x="330.119" y="625.471" opacity="0.08" enable-background="new    " width="162.459" height="5.212"/>
<rect x="330.119" y="635.399" opacity="0.08" enable-background="new    " width="162.459" height="5.212"/>
<rect x="330.119" y="645.158" opacity="0.08" enable-background="new    " width="162.459" height="5.212"/>
<rect x="378.521" y="751.672" opacity="0.08" enable-background="new    " width="162.458" height="5.212"/>
<rect x="330.119" y="554.82" opacity="0.08" enable-background="new    " width="162.459" height="5.212"/>
<rect x="330.119" y="564.749" opacity="0.08" enable-background="new    " width="162.459" height="5.212"/>
<rect x="330.119" y="574.508" opacity="0.08" enable-background="new    " width="162.459" height="5.212"/>
<rect x="28" y="654.916" opacity="0.08" enable-background="new    " width="228.425" height="5.212"/>
<rect x="28" y="549.356" opacity="0.08" enable-background="new    " width="122.645" height="15.36"/>
<rect x="500.775" y="549.104" opacity="0.3" enable-background="new    " width="39.424" height="40.596"/>
<rect x="500.775" y="620.146" opacity="0.3" enable-background="new    " width="39.424" height="40.595"/>
<rect x="283.358" y="531.93" opacity="0.08" enable-background="new    " width="3.513" height="236.546"/>
<rect x="27" y="174.289" opacity="0.08" enable-background="new    " width="339.365" height="194.859"/>
<rect x="374.679" y="174.476" opacity="0.08" enable-background="new    " width="164.804" height="92.73"/>
<rect x="374.679" y="274.245" opacity="0.08" enable-background="new    " width="164.804" height="92.73"/>
<rect x="374.679" y="375.862" opacity="0.08" enable-background="new    " width="164.804" height="92.73"/>
<rect x="201.007" y="375.862" opacity="0.08" enable-background="new    " width="164.804" height="92.73"/>
<rect x="26.411" y="375.862" opacity="0.08" enable-background="new    " width="164.804" height="92.73"/>
</svg>
