<?xml version="1.0" encoding="utf-8"?>
<!DOCTYPE svg PUBLIC "-//W3C//DTD SVG 1.1//EN" "http://www.w3.org/Graphics/SVG/1.1/DTD/svg11.dtd">
<svg version="1.1" xmlns="http://www.w3.org/2000/svg" xmlns:xlink="http://www.w3.org/1999/xlink" x="0px" y="0px" viewBox="0 0 567 800" enable-background="new 0 0 567 800" xml:space="preserve">
<g id="Layer_2_1_">
</g>
<g id="Layer_1">
	<g id="Layer_1_1_">
	</g>
	<path opacity="0.3" enable-background="new    " d="M561,6v788H6V6H561 M567,0H0v800h567V0L567,0z"/>
	<rect x="28" y="32.664" opacity="0.08" enable-background="new    " width="168.313" height="12.1"/>
	<rect x="28" y="102.935" opacity="0.04" enable-background="new    " width="455.096" height="22.836"/>
	<rect x="397.646" y="32.664" opacity="0.08" enable-background="new    " width="142.942" height="29.665"/>
	<rect x="28" y="50.229" opacity="0.08" enable-background="new    " width="168.313" height="12.1"/>
	<rect x="28" y="575.118" opacity="0.08" enable-background="new    " width="228.425" height="5.212"/>
	<rect x="28" y="502.118" opacity="0.08" enable-background="new    " width="454" height="5.212"/>
	<rect x="28" y="584.877" opacity="0.08" enable-background="new    " width="228.425" height="5.212"/>
	<rect x="28" y="595.025" opacity="0.08" enable-background="new    " width="228.425" height="5.212"/>
	<rect x="28" y="605.564" opacity="0.08" enable-background="new    " width="228.425" height="5.212"/>
	<rect x="28" y="615.322" opacity="0.08" enable-background="new    " width="228.425" height="5.212"/>
	<rect x="28" y="625.471" opacity="0.08" enable-background="new    " width="228.425" height="5.212"/>
	<rect x="28" y="635.399" opacity="0.08" enable-background="new    " width="228.425" height="5.212"/>
	<rect x="28" y="645.158" opacity="0.08" enable-background="new    " width="228.425" height="5.212"/>
	<rect x="330.119" y="625.471" opacity="0.08" enable-background="new    " width="162.459" height="5.212"/>
	<rect x="330.119" y="635.399" opacity="0.08" enable-background="new    " width="162.459" height="5.212"/>
	<rect x="330.119" y="645.158" opacity="0.08" enable-background="new    " width="162.459" height="5.212"/>
	<rect x="378.521" y="751.672" opacity="0.08" enable-background="new    " width="162.458" height="5.212"/>
	<rect x="330.119" y="554.82" opacity="0.08" enable-background="new    " width="162.459" height="5.212"/>
	<rect x="330.119" y="564.749" opacity="0.08" enable-background="new    " width="162.459" height="5.212"/>
	<rect x="330.119" y="574.508" opacity="0.08" enable-background="new    " width="162.459" height="5.212"/>
	<rect x="28" y="654.916" opacity="0.08" enable-background="new    " width="228.425" height="5.212"/>
	<rect x="28" y="549.356" opacity="0.08" enable-background="new    " width="122.645" height="15.36"/>
	<rect x="500.775" y="549.104" opacity="0.3" enable-background="new    " width="39.424" height="40.596"/>
	<rect x="500.775" y="620.146" opacity="0.3" enable-background="new    " width="39.424" height="40.595"/>
	<rect x="283.358" y="531.93" opacity="0.08" enable-background="new    " width="3.513" height="236.546"/>
	<rect x="27" y="135.109" opacity="0.08" enable-background="new    " width="250.927" height="144.079"/>
	<rect x="288.555" y="135.109" opacity="0.08" enable-background="new    " width="250.929" height="144.079"/>
	<rect x="378.697" y="291.416" opacity="0.08" enable-background="new    " width="160.785" height="90.469"/>
	<rect x="27.12" y="291.416" opacity="0.08" enable-background="new    " width="160.785" height="90.469"/>
	<rect x="204.924" y="291.416" opacity="0.08" enable-background="new    " width="160.785" height="90.469"/>
	<rect x="378.697" y="397.416" opacity="0.08" enable-background="new    " width="160.785" height="90.469"/>
	<rect x="27.12" y="397.416" opacity="0.08" enable-background="new    " width="160.785" height="90.469"/>
	<rect x="204.924" y="397.416" opacity="0.08" enable-background="new    " width="160.785" height="90.469"/>
</g>
</svg>
