<?xml version="1.0" encoding="utf-8"?>
<!DOCTYPE svg PUBLIC "-//W3C//DTD SVG 1.1//EN" "http://www.w3.org/Graphics/SVG/1.1/DTD/svg11.dtd">
<svg version="1.1" id="Layer_1" xmlns="http://www.w3.org/2000/svg" xmlns:xlink="http://www.w3.org/1999/xlink" x="0px" y="0px"
	 viewBox="0 0 567 800" enable-background="new 0 0 567 800" xml:space="preserve">
<g id="Layer_1_1_">
</g>
<g id="Layer_2">
	<path opacity="0.3" enable-background="new    " d="M561,6v788H6V6H561 M567,0H0v800h567V0L567,0z"/>
	<rect x="28" y="32.664" opacity="0.08" enable-background="new    " width="168.313" height="12.1"/>
	<rect x="397.646" y="32.664" opacity="0.08" enable-background="new    " width="142.942" height="29.665"/>
	<rect x="28" y="50.229" opacity="0.08" enable-background="new    " width="168.313" height="12.1"/>
	<rect x="28" y="398.482" opacity="0.08" enable-background="new    " width="454.039" height="5.212"/>
	<rect x="28" y="505.118" opacity="0.08" enable-background="new    " width="228.425" height="5.212"/>
	<rect x="28" y="514.877" opacity="0.08" enable-background="new    " width="228.425" height="5.212"/>
	<rect x="28" y="525.025" opacity="0.08" enable-background="new    " width="228.425" height="5.212"/>
	<rect x="28" y="535.564" opacity="0.08" enable-background="new    " width="228.425" height="5.212"/>
	<rect x="28" y="545.322" opacity="0.08" enable-background="new    " width="228.425" height="5.212"/>
	<rect x="28" y="555.471" opacity="0.08" enable-background="new    " width="228.425" height="5.212"/>
	<rect x="28" y="565.399" opacity="0.08" enable-background="new    " width="228.425" height="5.212"/>
	<rect x="28" y="575.158" opacity="0.08" enable-background="new    " width="228.425" height="5.212"/>
	<rect x="330.119" y="555.471" opacity="0.08" enable-background="new    " width="162.459" height="5.212"/>
	<rect x="330.119" y="565.399" opacity="0.08" enable-background="new    " width="162.459" height="5.212"/>
	<rect x="330.119" y="575.158" opacity="0.08" enable-background="new    " width="162.459" height="5.212"/>
	<rect x="378.521" y="682.672" opacity="0.08" enable-background="new    " width="162.458" height="5.212"/>
	<rect x="330.119" y="484.82" opacity="0.08" enable-background="new    " width="162.459" height="5.212"/>
	<rect x="330.119" y="494.749" opacity="0.08" enable-background="new    " width="162.459" height="5.212"/>
	<rect x="330.119" y="504.508" opacity="0.08" enable-background="new    " width="162.459" height="5.212"/>
	<rect x="28" y="584.916" opacity="0.08" enable-background="new    " width="228.425" height="5.212"/>
	<rect x="28" y="479.356" opacity="0.08" enable-background="new    " width="122.645" height="15.36"/>
	<rect x="500.775" y="479.104" opacity="0.3" enable-background="new    " width="39.424" height="40.596"/>
	<rect x="500.775" y="550.146" opacity="0.3" enable-background="new    " width="39.424" height="40.595"/>
	<rect x="283.358" y="461.93" opacity="0.08" enable-background="new    " width="3.513" height="236.546"/>
</g>
<rect x="27" y="135.109" opacity="0.08" enable-background="new    " width="250.927" height="144.079"/>
<rect x="288.555" y="135.109" opacity="0.08" enable-background="new    " width="250.929" height="144.079"/>
<rect x="378.697" y="291.416" opacity="0.08" enable-background="new    " width="160.785" height="90.469"/>
<rect x="27.12" y="291.416" opacity="0.08" enable-background="new    " width="160.785" height="90.469"/>
<rect x="204.924" y="291.416" opacity="0.08" enable-background="new    " width="160.785" height="90.469"/>
</svg>
