<?xml version="1.0" encoding="utf-8"?>
<!DOCTYPE svg PUBLIC "-//W3C//DTD SVG 1.1//EN" "http://www.w3.org/Graphics/SVG/1.1/DTD/svg11.dtd">
<svg version="1.1" xmlns="http://www.w3.org/2000/svg" xmlns:xlink="http://www.w3.org/1999/xlink" x="0px" y="0px" viewBox="0 0 567 800" enable-background="new 0 0 567 800" xml:space="preserve">
<g id="Layer_1">
</g>
<g id="Layer_2">
	<path opacity="0.3" d="M561,6v788H6V6H561 M567,0H0v800h567V0L567,0z"/>
	<rect x="28" y="22" opacity="0.08" width="169" height="36"/>
	<rect x="373" y="22.063" opacity="0.08" width="168" height="14.875"/>
	<rect x="373" y="44.063" opacity="0.08" width="168" height="14.875"/>
	<rect x="28" y="109.875" opacity="0.3" width="513" height="35"/>
	<rect x="28" y="520.874" opacity="0.3" width="513" height="14.002"/>
	<rect x="501" y="588.679" opacity="0.3" width="40" height="40.179"/>
	<rect x="403.512" y="589" opacity="0.08" width="90.728" height="5.346"/>
	<rect x="403.512" y="610.276" opacity="0.08" width="90.728" height="5.346"/>
	<rect x="403.512" y="599.82" opacity="0.08" width="90.728" height="5.346"/>
	<rect x="501" y="649.89" opacity="0.3" width="40" height="40.179"/>
	<rect x="403.512" y="650.211" opacity="0.08" width="90.728" height="5.346"/>
	<rect x="403.512" y="671.487" opacity="0.08" width="90.728" height="5.346"/>
	<rect x="403.512" y="661.031" opacity="0.08" width="90.728" height="5.346"/>
	<rect x="28.056" y="589" opacity="0.08" width="176.119" height="14.391"/>
	<rect x="28.056" y="613.946" opacity="0.08" width="322.969" height="4.853"/>
	<rect x="28.056" y="695.387" opacity="0.08" width="322.969" height="4.853"/>
	<rect x="28.056" y="624.584" opacity="0.08" width="322.969" height="4.853"/>
	<rect x="28.056" y="634.489" opacity="0.08" width="322.969" height="4.853"/>
	<rect x="28.056" y="644.394" opacity="0.08" width="322.969" height="4.853"/>
	<rect x="28.056" y="654.665" opacity="0.08" width="322.969" height="4.853"/>
	<rect x="28.056" y="665.304" opacity="0.08" width="322.969" height="4.853"/>
	<rect x="28.056" y="675.209" opacity="0.08" width="322.969" height="4.853"/>
	<rect x="28.056" y="685.114" opacity="0.08" width="322.969" height="4.853"/>
	<rect x="88.359" y="722.614" opacity="0.08" width="39.253" height="30.082"/>
	<rect x="143.754" y="722.614" opacity="0.08" width="39.253" height="30.082"/>
	<rect x="202.083" y="722.614" opacity="0.08" width="39.253" height="30.082"/>
	<rect x="259.313" y="722.614" opacity="0.08" width="39.253" height="30.082"/>
	<rect x="28" y="158.109" opacity="0.08" width="250.927" height="144.078"/>
	<rect x="289.555" y="158.109" opacity="0.08" width="250.928" height="144.078"/>
	<rect x="379.697" y="314.416" opacity="0.08" width="160.785" height="90.469"/>
	<rect x="28.12" y="314.416" opacity="0.08" width="160.785" height="90.469"/>
	<rect x="205.924" y="314.416" opacity="0.08" width="160.785" height="90.469"/>
	<rect x="379.697" y="419.217" opacity="0.08" width="160.785" height="90.469"/>
	<rect x="28.12" y="419.217" opacity="0.08" width="160.785" height="90.469"/>
	<rect x="205.924" y="419.217" opacity="0.08" width="160.785" height="90.469"/>
</g>
</svg>
