<svg xmlns="http://www.w3.org/2000/svg" xmlns:xlink="http://www.w3.org/1999/xlink" xmlns:sketch="http://www.bohemiancoding.com/sketch/ns" viewBox="0 0 45 45" version="1.1" class="injected-svg inject">
    <title>icon</title>
    <defs></defs>
    <g id="Page-1" stroke="none" stroke-width="1" sketch:type="MSPage">
        <g id="icon" class="svg-icon" sketch:type="MSArtboardGroup">
            <g id="Icons-Noun-Bold" sketch:type="MSLayerGroup" transform="translate(-257.000000, 5.000000)">
                <g id="garages" transform="translate(261.000000, 0.000000)" sketch:type="MSShapeGroup">
                    <path d="M11.0049911,21.8568508 L27.0465496,21.8568508 L27.0465496,23.6487983 L11.0049911,23.6487983 L11.0049911,21.8568508 Z" id="Shape"></path>
                    <path d="M11.0049911,25.8923077 L27.0465496,25.8923077 L27.0465496,27.6842547 L11.0049911,27.6842547 L11.0049911,25.8923077 Z" id="Shape"></path>
                    <path d="M11.0049911,29.9277646 L27.0465496,29.9277646 L27.0465496,31.7197115 L11.0049911,31.7197115 L11.0049911,29.9277646 Z" id="Shape"></path>
                    <path d="M19.0268011,0.355529108 L0.0783422778,14.7646632 L3.17078967,14.7646632 L3.17078967,30.8145431 C3.17078967,32.2979569 4.38509128,33.5014423 5.88183581,33.5014423 L8.32899306,33.5014423 L8.32899306,21.1846154 C8.32899306,19.7012017 9.54535617,18.4977162 11.0421007,18.4977162 L27.00944,18.4977162 C28.506185,18.4977162 29.7204861,19.7012017 29.7204861,21.1846154 L29.7204861,33.5014423 L32.1676434,33.5014423 C33.6664494,33.5014423 34.8786895,32.2979569 34.8786895,30.8145431 L34.8786895,14.7646632 L37.7381726,14.7646632 L19.0268011,0.355529108 Z M18.9072267,14.1373799 C17.0105253,14.1373799 15.4704861,12.6110577 15.4704861,10.73125 C15.4704861,8.85144231 17.0105253,7.32512006 18.9072267,7.32512006 C20.8059896,7.32512006 22.3439673,8.85144231 22.3439673,10.73125 C22.3439673,12.6110577 20.8059896,14.1373799 18.9072267,14.1373799 L18.9072267,14.1373799 Z" id="Shape"></path>
                </g>
            </g>
        </g>
    </g>
</svg>
