<svg xmlns="http://www.w3.org/2000/svg" xmlns:xlink="http://www.w3.org/1999/xlink" viewBox="0 0 45 45" version="1.1" style="background: #FFFFFF;" class="injected-svg inject">
    <!-- Generator: Sketch 42 (36781) - http://www.bohemiancoding.com/sketch -->
    <title>Artboard</title>
    <desc>Created with Sketch.</desc>
    <defs>
        <rect id="path-1" x="0" y="0" width="18" height="18"></rect>
    </defs>
    <g id="Page-1" stroke="none" stroke-width="1" fill="none" fill-rule="evenodd">
        <g id="Artboard">
            <g id="icon-lot-size" transform="translate(8.000000, 8.000000)">
                <g id="Page-1">
                    <g id="icon-lot-size">
                        <path class="svg-icon" d="M0,0 L30,0 L30,30 L0,30 L0,0 Z M2,2 L2,28 L28,28 L28,2 L2,2 Z" id="Combined-Shape" ></path>
                        <g id="Rectangle-3" transform="translate(0.000000, 12.000000)">
                            <g id="path-1-Clipped">
                                <mask id="mask-2" fill="white">
                                    <use xlink:href="#path-1"></use>
                                </mask>
                                <g id="path-1"></g>
                                <rect class="svg-icon-stroke" id="path-1" stroke-width="6" mask="url(#mask-2)" x="0" y="0" width="18" height="18"></rect>
                            </g>
                        </g>
                        <g id="Group" transform="translate(20.000000, 10.000000) rotate(-180.000000) translate(-20.000000, -10.000000) translate(15.000000, 5.000000)" fill="#9FC44D">
                            <path class="svg-icon" d="M10,2.0909091 L4.69331873,7.39759037 L9.03066814,7.39759037 L6.42825845,10 L8.21412923,10 L7.10542736e-15,10 L7.10542736e-15,0 L10,0 L10,2.0909091 Z M2.9545455,0 L7.5454545,8.8817842e-16 L2.4545455,5.09090909 L2.4545455,1 L0,3.45454545 L8.8817842e-16,0 L2.9545455,0 Z" id="Combined-Shape"></path>
                        </g>
                    </g>
                </g>
            </g>
        </g>
    </g>
</svg>
