<svg version="1.1" id="Warstwa_1" xmlns="http://www.w3.org/2000/svg" xmlns:xlink="http://www.w3.org/1999/xlink" x="0px" y="0px" viewBox="0 0 495 495" style="enable-background:new 0 0 495 495;" xml:space="preserve">
  <g>
    <path class="st0" fill="none" d="M160.3,199l130.2,127.1l75.8-85.3l86.3,89.1V62.5c0-11.1-9-20.1-20.1-20.1H62.5c-11.1,0-20.1,9-20.1,20.1
      v266.4L160.3,199z M337.1,83.4c32.9,0,59.7,26.8,59.7,59.7s-26.8,59.7-59.7,59.7s-59.7-26.8-59.7-59.7S304.2,83.4,337.1,83.4z"/>
    <path class="st0" fill="none" d="M367.6,303.1l-75,84.3L162.1,260.1L42.4,392v40.4c0,11.1,9,20.1,20.1,20.1h369.9c11.1,0,20.1-9,20.1-20.1
      v-41.7L367.6,303.1z"/>
    <path class="st0" fill="none" d="M337.1,174.6c17.3,0,31.4-14.1,31.4-31.4s-14.1-31.4-31.4-31.4c-17.3,0-31.4,14.1-31.4,31.4
      S319.8,174.6,337.1,174.6z"/>
    <path class="st1" d="M432.5,0H62.5C28,0,0,28,0,62.5v369.9C0,467,28,495,62.5,495h369.9c34.5,0,62.5-28,62.5-62.5V62.5
      C495,28,467,0,432.5,0z M62.5,42.4h369.9c11.1,0,20.1,9,20.1,20.1v267.3l-86.3-89.1l-75.8,85.3L160.3,199L42.4,328.9V62.5
      C42.4,51.4,51.4,42.4,62.5,42.4z M432.5,452.6H62.5c-11.1,0-20.1-9-20.1-20.1V392l119.7-132l130.5,127.4l75-84.3l84.9,87.7v41.7
      C452.6,443.6,443.6,452.6,432.5,452.6z"/>
    <path class="st1" d="M337.1,202.8c32.9,0,59.7-26.8,59.7-59.7S370,83.4,337.1,83.4s-59.7,26.8-59.7,59.7S304.2,202.8,337.1,202.8zM337.1,111.7c17.3,0,31.4,14.1,31.4,31.4s-14.1,31.4-31.4,31.4c-17.3,0-31.4-14.1-31.4-31.4S319.8,111.7,337.1,111.7z"/>
  </g>
</svg>