<svg version="1.1" id="Warstwa_1" xmlns="http://www.w3.org/2000/svg" xmlns:xlink="http://www.w3.org/1999/xlink" x="0px" y="0px" viewBox="0 0 194.7 157.8" style="enable-background:new 0 0 194.7 157.8;" xml:space="preserve">
<g>
	<path class="st0" fill="none" d="M167.5,18.4H27.2c-4.8,0-8.7,3.9-8.7,8.7V106c0,4.8,3.9,8.7,8.7,8.7h16.9h8.1l5.5,6l8.8,9.6l8.4-9.4l5.5-6.1
		h8.2h78.9c4.8,0,8.7-3.9,8.7-8.7V27.2C176.2,22.4,172.3,18.4,167.5,18.4z M149.2,89.5H42.7V71h106.5V89.5z M149.2,60.3H42.7V41.9
		h106.5V60.3z"/>
	<path class="st1" d="M167.5,0H27.2C12.2,0,0,12.2,0,27.2V106c0,15,12.2,27.2,27.2,27.2h16.9l22.5,24.6l22-24.6h78.9
		c15,0,27.2-12.2,27.2-27.2V27.2C194.7,12.2,182.5,0,167.5,0z M176.2,106c0,4.8-3.9,8.7-8.7,8.7H88.6h-8.2l-5.5,6.1l-8.4,9.4
		l-8.8-9.6l-5.5-6h-8.1H27.2c-4.8,0-8.7-3.9-8.7-8.7V27.2c0-4.8,3.9-8.7,8.7-8.7h140.3c4.8,0,8.7,3.9,8.7,8.7V106z"/>
	<rect x="42.7" y="41.9" class="st1" width="106.5" height="18.4"/>
	<rect x="42.7" y="71" class="st1" width="106.5" height="18.4"/>
</g>
</svg>
