<svg version="1.1" id="Warstwa_1" xmlns="http://www.w3.org/2000/svg" xmlns:xlink="http://www.w3.org/1999/xlink" x="0px" y="0px" viewBox="0 0 213.3 158.6" style="enable-background:new 0 0 213.3 158.6;" xml:space="preserve">
  <g>
    <path class="st0" fill="none" d="M134.5,20.7l-24.4,28.4l-9.8,11.4l-9.2,10.7v63.6v1.2c0,2.9,2.3,5.2,5.2,5.2l27.1,0l48.6,0
      c2.9,0,5.2-2.3,5.2-5.2V72.6l0-2.2L134.5,20.7z"/>
    <path class="st1" d="M61.7,134.7l-25.1,0c-2.6,0-4.7-2.1-4.7-4.7V71.7l39-45.4l10,11.7l9.8-11.4l-14-16.3c-1.5-1.7-3.6-2.6-5.8-2.5
      c-2.1,0-4.3,0.8-5.8,2.5L1.8,83.9c-2.7,3.1-2.3,7.8,0.8,10.5c1.4,1.2,3.1,1.8,4.8,1.8c2.1,0,4.2-0.9,5.6-2.6l3.9-4.6v46.8
      c0,8,6.5,14.5,14.5,14.5h31.4c-0.7-2.5-1.1-5.1-1.1-7.9V134.7z"/>
    <path class="st1" d="M211.3,84.7L140.9,2.8C139.3,0.9,137,0,134.7,0c-0.1,0-0.1,0-0.2,0c-0.1,0-0.1,0-0.2,0c-2.3,0-4.6,0.9-6.3,2.8
      L99.2,36.4l-9.8,11.4L57.7,84.7c-3,3.5-2.6,8.7,0.9,11.6c1.6,1.3,3.5,2,5.4,2c2.3,0,4.6-1,6.3-2.9l4.4-5.1v44.3v7.8
      c0,2.9,0.8,5.5,2.1,7.9c2.8,4.9,8,8.2,14,8.2h46.7v0l40.7,0c8.9,0,16.1-7.2,16.1-16.1v-39.7h0V89.9l4.8,5.6
      c1.6,1.9,3.9,2.9,6.3,2.9c1.9,0,3.8-0.7,5.4-2C213.9,93.4,214.3,88.2,211.3,84.7z M177.3,135.9c0,2.9-2.3,5.2-5.2,5.2l-48.6,0
      l-27.1,0c-2.9,0-5.2-2.3-5.2-5.2v-1.2V71.1l9.2-10.7l9.8-11.4l24.4-28.4l42.8,49.8l0,2.2V135.9z"/>
  </g>
</svg>
