<svg version="1.1" id="Warstwa_1" xmlns="http://www.w3.org/2000/svg" xmlns:xlink="http://www.w3.org/1999/xlink" x="0px" y="0px" viewBox="0 0 194.7 195.3" style="enable-background:new 0 0 194.7 195.3;" xml:space="preserve">
	<g>
		<path class="st0" fill="none" d="M157.5,33c0,4-3.2,7.2-7.2,7.2c-4,0-7.2-3.2-7.2-7.2v-3.8h-12.8V33c0,4-3.2,7.2-7.2,7.2c-4,0-7.2-3.2-7.2-7.2
			v-3.8h-12.7V33c0,4-3.2,7.2-7.2,7.2h0c-4,0-7.2-3.2-7.2-7.2v-3.8H76V33c0,4-3.2,7.2-7.2,7.2c-4,0-7.2-3.2-7.2-7.2v-3.8H48.8V33
			c0,4-3.2,7.2-7.2,7.2c-4,0-7.2-3.2-7.2-7.2v-3.8H16.8v150.6h161.1V29.2h-20.4V33z M111.2,154.9H34.4v-13.6h76.9V154.9z M157.7,131
			H34.4v-13.6h123.3V131z M157.7,103.8H34.4V55h123.3V103.8z"/>
		<path class="st1" d="M184.3,12.4h-26.8V7.2c0-4-3.2-7.2-7.2-7.2c-4,0-7.2,3.2-7.2,7.2v5.2h-12.8V7.2c0-4-3.2-7.2-7.2-7.2
			c-4,0-7.2,3.2-7.2,7.2v5.2h-12.7V7.2c0-4-3.2-7.2-7.2-7.2h0c-4,0-7.2,3.2-7.2,7.2v5.2H76V7.2c0-4-3.2-7.2-7.2-7.2
			c-4,0-7.2,3.2-7.2,7.2v5.2H48.8V7.2c0-4-3.2-7.2-7.2-7.2c-4,0-7.2,3.2-7.2,7.2v5.2h-24C4.6,12.4,0,17,0,22.8v163.5
			c0,5.7,4.6,10.3,10.3,10.3h174c5.7,0,10.3-4.6,10.3-10.3V22.8C194.7,17,190,12.4,184.3,12.4z M177.9,179.8H16.8V29.2h17.6V33
			c0,4,3.2,7.2,7.2,7.2c4,0,7.2-3.2,7.2-7.2v-3.8h12.7V33c0,4,3.2,7.2,7.2,7.2c4,0,7.2-3.2,7.2-7.2v-3.8h12.7V33c0,4,3.2,7.2,7.2,7.2
			h0c4,0,7.2-3.2,7.2-7.2v-3.8h12.7V33c0,4,3.2,7.2,7.2,7.2c4,0,7.2-3.2,7.2-7.2v-3.8h12.8V33c0,4,3.2,7.2,7.2,7.2
			c4,0,7.2-3.2,7.2-7.2v-3.8h20.4V179.8z"/>
		<rect x="34.4" y="117.4" class="st1" width="123.3" height="13.6"/>
		<rect x="34.4" y="55" class="st1" width="123.3" height="48.8"/>
		<rect x="34.4" y="141.3" class="st1" width="76.9" height="13.6"/>
	</g>
</svg>
