<svg version="1.1" id="Warstwa_1" xmlns="http://www.w3.org/2000/svg" xmlns:xlink="http://www.w3.org/1999/xlink" x="0px" y="0px" viewBox="0 0 209.3 209.3" style="enable-background:new 0 0 209.3 209.3;" xml:space="preserve">
	<path class="st0" d="M142.8,49.7l8.4,8.4l8.4,8.4L157,78.2c-0.9,4.1-2.9,7.6-5.8,10.5l-38.6,38.6l-6.2,6.2l-2,8.5l-1.3,5.5l-9.5-9.5
		l-21.5-21.5l-0.5-0.5l-0.5-0.5h0l-9.5-9.5l5.5-1.3l8.5-2l6.2-6.2l38.6-38.6c2.9-2.9,6.5-4.8,10.5-5.8L142.8,49.7 M133,0
		c-2.8,0-5.3,1.7-5.8,4.9l-2.9,17.8c-9.3,2.1-18.1,6.7-25.3,13.9L60.4,75.2l-41.3,9.5c-7.7,1.8-10.4,11.3-4.9,16.9l36.4,36.4
		L8.2,180.6L0,209.3l28.7-8.2l42.6-42.6l36.4,36.4c2,2,4.6,3,7.1,3c4.4,0,8.7-2.9,9.9-7.8l9.5-41.3l38.6-38.6
		c7.2-7.2,11.8-16.1,13.9-25.3l17.8-2.9c5.2-0.8,6.6-7.2,2.5-11.3l-34.2-34.2v0L138.5,2.4C136.9,0.8,134.9,0,133,0L133,0z"/>
</svg>
