<svg version="1.1" id="Warstwa_1" xmlns="http://www.w3.org/2000/svg" xmlns:xlink="http://www.w3.org/1999/xlink" x="0px" y="0px" viewBox="0 0 194.7 238.1" style="enable-background:new 0 0 194.7 238.1;" xml:space="preserve">
	<g>
		<path class="st0" fill='none' d="M158.3,41.5c0,5-4.1,9.1-9.1,9.1s-9.1-4.1-9.1-9.1v-4.8h-16v4.8c0,5-4.1,9.1-9.1,9.1c-5,0-9.1-4.1-9.1-9.1
			v-4.8h-16v4.8c0,5-4.1,9.1-9.1,9.1c-5,0-9.1-4.1-9.1-9.1v-4.8h-16v4.8c0,5-4.1,9.1-9.1,9.1s-9.1-4.1-9.1-9.1v-4.8H21.1V217h152.4
			V36.7h-15.2V41.5z M105.9,77.1h18.2v17.1h-18.2V77.1z M105.9,108.2h18.2v17.1h-18.2V108.2z M71.7,77.1h18.2v17.1H71.7V77.1zM71.7,108.2h18.2v17.1H71.7V108.2z M37.5,77.1h18.2v17.1H37.5V77.1z M37.5,108.2h18.2v17.1H37.5V108.2z M134.3,192.7H37.5v-17.1
			h96.8V192.7z M158.3,162.6H37.5v-17.1h120.8V162.6z M158.3,94.2h-18.2V77.1h18.2V94.2z"/>
		<path class="st1" d="M181.7,15.6h-23.3V9.1c0-5-4.1-9.1-9.1-9.1s-9.1,4.1-9.1,9.1v6.5h-16V9.1c0-5-4.1-9.1-9.1-9.1
			c-5,0-9.1,4.1-9.1,9.1v6.5h-16V9.1c0-5-4.1-9.1-9.1-9.1c-5,0-9.1,4.1-9.1,9.1v6.5h-16V9.1c0-5-4.1-9.1-9.1-9.1s-9.1,4.1-9.1,9.1
			v6.5H13c-7.2,0-13,5.8-13,13v196.5c0,7.2,5.8,13,13,13h168.6c7.2,0,13-5.8,13-13V28.6C194.7,21.5,188.8,15.6,181.7,15.6zM173.6,217H21.1V36.7h16.4v4.8c0,5,4.1,9.1,9.1,9.1s9.1-4.1,9.1-9.1v-4.8h16v4.8c0,5,4.1,9.1,9.1,9.1c5,0,9.1-4.1,9.1-9.1v-4.8h16
			v4.8c0,5,4.1,9.1,9.1,9.1c5,0,9.1-4.1,9.1-9.1v-4.8h16v4.8c0,5,4.1,9.1,9.1,9.1s9.1-4.1,9.1-9.1v-4.8h15.2V217z"/>
		<rect x="37.5" y="77.1" class="st1" width="18.2" height="17.1"/>
		<rect x="37.5" y="145.5" class="st1" width="120.8" height="17.1"/>
		<rect x="37.5" y="175.6" class="st1" width="96.8" height="17.1"/>
		<rect x="71.7" y="77.1" class="st1" width="18.2" height="17.1"/>
		<rect x="105.9" y="77.1" class="st1" width="18.2" height="17.1"/>
		<rect x="140.1" y="77.1" class="st1" width="18.2" height="17.1"/>
		<rect x="37.5" y="108.2" class="st1" width="18.2" height="17.1"/>
		<rect x="71.7" y="108.2" class="st1" width="18.2" height="17.1"/>
		<rect x="105.9" y="108.2" class="st1" width="18.2" height="17.1"/>
	</g>
</svg>
