<svg version="1.1" id="Warstwa_1" xmlns="http://www.w3.org/2000/svg" xmlns:xlink="http://www.w3.org/1999/xlink" x="0px" y="0px" viewBox="0 0 495 479.5" style="enable-background:new 0 0 495 479.5;" xml:space="preserve">
  <g>
    <path class="st0" fill="none" d="M124.8,246.3v-29.8c0-11.7,9.5-21.2,21.2-21.2s21.2,9.5,21.2,21.2v29.8h161.5v-29.8c0-11.7,9.5-21.2,21.2-21.2
      c11.7,0,21.2,9.5,21.2,21.2v29.8h81.7V144.8c0-11.1-9-20.1-20.1-20.1H63.2c-11.1,0-20.1,9-20.1,20.1v101.5H124.8z"/>
    <path class="st0" fill="none" d="M328.6,42.4H167.2v39c0,0.3-0.1,0.6-0.1,1h161.6L328.6,42.4z"/>
    <path class="st0" fill="none" d="M371,288.6V342c0,11.7-9.5,21.2-21.2,21.2c-11.7,0-21.2-9.5-21.2-21.2v-53.3H167.2V342
      c0,11.7-9.5,21.2-21.2,21.2s-21.2-9.5-21.2-21.2v-53.3H43.1v128.1c0,11.1,9,20.1,20.1,20.1h369.4c11.1,0,20.1-9,20.1-20.1V288.6
      H371z"/>
    <path class="st1" d="M432.6,82.4H371c0,0,0,0,0,0l-0.1-61.2c0-11.7-9.5-21.2-21.2-21.2H146c-11.7,0-21.2,9.5-21.2,21.2v60.2
      c0,0.3,0.1,0.6,0.1,1H63.2c-34.5,0-62.5,28-62.5,62.5v117.4c-0.4,1.7-0.7,3.4-0.7,5.2s0.3,3.5,0.7,5.2v144.1
      c0,34.5,28,62.5,62.5,62.5h369.4c34.5,0,62.5-28,62.5-62.5v-272C495.1,110.3,467.1,82.4,432.6,82.4z M167.2,81.4v-39h161.5l0,40
      H167.1C167.1,82,167.2,81.7,167.2,81.4z M63.2,124.7h369.4c11.1,0,20.1,9,20.1,20.1v101.5H371v-29.8c0-11.7-9.5-21.2-21.2-21.2
      c-11.7,0-21.2,9.5-21.2,21.2v29.8H167.2v-29.8c0-11.7-9.5-21.2-21.2-21.2s-21.2,9.5-21.2,21.2v29.8H43.1V144.8
      C43.1,133.7,52.1,124.7,63.2,124.7z M432.6,436.9H63.2c-11.1,0-20.1-9-20.1-20.1V288.6h81.7V342c0,11.7,9.5,21.2,21.2,21.2
      s21.2-9.5,21.2-21.2v-53.3h161.5V342c0,11.7,9.5,21.2,21.2,21.2c11.7,0,21.2-9.5,21.2-21.2v-53.3h81.7v128.1
      C452.7,427.9,443.7,436.9,432.6,436.9z"/>
  </g>
</svg>
