<svg version="1.1" id="Warstwa_1" xmlns="http://www.w3.org/2000/svg" xmlns:xlink="http://www.w3.org/1999/xlink" x="0px" y="0px" viewBox="0 0 430 479.5" style="enable-background:new 0 0 430 479.5;" xml:space="preserve">
	<g>
		<path class="st0" d="M376,36.9c9.6,0,17.5,7.8,17.5,17.5V376c0,9.6-7.8,17.5-17.5,17.5H259.2h-16.5l-11,12.3l-16.9,18.9l-17.6-19.2
			l-11-12h-16.2H54.4c-9.6,0-17.5-7.8-17.5-17.5V54.4c0-9.6,7.8-17.5,17.5-17.5H376 M376,0H54.4C24.3,0,0,24.3,0,54.4V376
			c0,30,24.3,54.4,54.4,54.4h115.7l45.1,49.2l44-49.2H376c30,0,54.4-24.3,54.4-54.4V54.4C430.3,24.3,406,0,376,0L376,0z"/>
		<g>
			<path d="M237.1,252.7h-43.5v-21.5c0-7.8,1-13.7,3-17.6c2-3.9,6.2-9.2,12.7-15.9l19.5-20c2.9-3.4,4.3-7.9,4.3-13.3
				c0-5.4-1.5-10-4.6-13.6c-3.1-3.6-7.1-5.4-12-5.4c-5,0-9.1,2.1-12.4,6.4c-3.3,4.3-5.4,10-6.2,17h-45.5c2.1-19.1,9.1-34.1,20.9-44.9
				c11.8-10.9,26.7-16.3,44.5-16.3c17.8,0,32.3,4.9,43.5,14.6c11.2,9.7,16.7,23.2,16.7,40.4c0,7.6-1,13.3-2.9,17
				c-1.9,3.7-3.2,6.4-4,8c-0.8,1.6-2.5,4.1-5.3,7.3c-2.8,3.2-4.6,5.3-5.6,6.3c-4.6,4.6-8.9,8.9-13,12.9c-4.1,4-6.8,7.3-8.2,9.9
				c-1.3,2.6-2,6.4-2,11.6V252.7z M198,307.2c-4.9-4.9-7.3-10.8-7.3-17.9c0-7.1,2.4-13,7.3-17.9c4.9-4.9,10.8-7.3,17.9-7.3
				c7.1,0,13,2.4,17.9,7.3c4.9,4.9,7.3,10.8,7.3,17.9c0,7.1-2.4,13-7.3,17.9c-4.9,4.9-10.8,7.3-17.9,7.3
				C208.8,314.5,202.9,312.1,198,307.2z"/>
		</g>
	</g>
</svg>
