<svg version="1.1" id="Warstwa_1" xmlns="http://www.w3.org/2000/svg" xmlns:xlink="http://www.w3.org/1999/xlink" x="0px" y="0px" viewBox="0 0 145.1 137.4" style="enable-background:new 0 0 145.1 137.4;" xml:space="preserve">
  <g>
    <path class="st0" d="M39.2,121.3c0-1,0-2,0.1-3H11.5v-2.4c0-17,13.9-30.9,30.9-30.9c3.1,0,6.1,0.5,8.9,1.3c0.6-0.7,1.1-1.4,1.7-2.1
      c2.2-2.5,4.6-4.8,7.2-6.9c-3.6-1.7-7.4-2.9-11.5-3.5c4.8-0.9,9.2-2.9,13-5.6c-2.6-2.8-4.8-6-6.6-9.4c-3.6,2.6-8,4.1-12.7,4.1
      c-11.9,0-21.6-9.6-21.6-21.4s9.7-21.4,21.6-21.4c3.5,0,6.9,0.9,9.8,2.4c1.3-3.7,3-7.1,5.1-10.3c-4.5-2.2-9.5-3.5-14.9-3.5
      C24.1,8.7,9.3,23.4,9.3,41.5c0,16,11.5,29.2,26.6,32.2C15.6,76.8,0,94.3,0,115.5v0.3v13.9h39.2v-8.1V121.3z"/>
    <path class="st0" d="M135.8,94.7c-0.7-1-1.5-2-2.2-3c-7.3-9.4-18.1-15.9-30.4-17.8c17.3-3.4,30.3-18.4,30.3-36.6
      C133.5,16.7,116.7,0,95.9,0S58.4,16.7,58.4,37.3c0,18.1,13,33.2,30.2,36.6c-23.1,3.5-40.8,23.4-40.8,47.4v0.3v15.8h46.3h49.6v-16.1
      C143.8,111.5,140.8,102.3,135.8,94.7L135.8,94.7z M71.4,37.3c0-13.4,11-24.3,24.5-24.3s24.5,10.9,24.5,24.3
      c0,13.4-11,24.3-24.5,24.3S71.4,50.7,71.4,37.3z M130.8,124.3H94.2H60.9v-2.8c0-19.3,15.7-35.1,35.1-35.1c8.6,0,16.4,3.1,22.5,8.2
      h0.1c7.5,6.4,12.3,15.9,12.3,26.6V124.3z"/>
  </g>
</svg>
