<svg version="1.1" id="Warstwa_1" xmlns="http://www.w3.org/2000/svg" xmlns:xlink="http://www.w3.org/1999/xlink" x="0px" y="0px" viewBox="0 0 343.3 233.3" style="enable-background:new 0 0 343.3 233.3;" xml:space="preserve">
	<g>
		<path class="st0" fill="none" d="M299.5,39.7H108.6c-2.1,0-3.6,1.3-4.2,2.1v144.5c0,0.8,0.1,7.5,4.2,7.5h190.8c2.3,0,4.2-1.9,4.2-4.2V43.9
			C303.7,41.5,301.8,39.7,299.5,39.7z"/>
		<path class="st1" d="M299.5,0H108.6C84.4,0,64.8,19.6,64.8,40.6V80L0,44.5v144.4l64.8-35.4l0,0v32.8c0,27.5,19.6,47.2,43.9,47.2
			h190.8c24.2,0,43.9-19.6,43.9-43.9V43.9C343.3,19.6,323.7,0,299.5,0z M303.7,189.6c0,2.3-1.9,4.2-4.2,4.2H108.6
			c-4.1,0-4.2-6.7-4.2-7.5V41.7c0.6-0.7,2.1-2.1,4.2-2.1h190.8c2.3,0,4.2,1.9,4.2,4.2V189.6z"/>
	</g>
</svg>
