<svg version="1.1" id="Warstwa_1" xmlns="http://www.w3.org/2000/svg" xmlns:xlink="http://www.w3.org/1999/xlink" x="0px" y="0px" viewBox="0 0 145.1 145.1" style="enable-background:new 0 0 145.1 145.1;" xml:space="preserve">
	<path class="st0" d="M89.9,72.6l51.7-51.7c4.8-4.8,4.8-12.5,0-17.2c-4.8-4.8-12.5-4.8-17.2,0L72.7,55.3L21,3.6
		c-4.8-4.8-12.5-4.8-17.2,0C-1,8.3-1,16.1,3.7,20.8l51.7,51.7L3.7,124.3c-4.8,4.8-4.8,12.5,0,17.2c4.8,4.8,12.5,4.8,17.2,0l51.7-51.7
		l51.7,51.7c4.8,4.8,12.5,4.8,17.2,0c4.8-4.8,4.8-12.5,0-17.2L89.9,72.6z"/>
</svg>
